# xmcd CD database file
#
# Track frame offsets:
#	150
#	26115
#	50860
#	76524
#	100374
#	125374
#	152090
#	177897
#	203806
#	234939
#
# Disc length: 3442 seconds
#
# Revision: 0
# Processed by: cddbd v1.4PL0 Copyright (c) Steve Scherf et al.
# Submitted via: CDex 1.51
#
DISCID=790d700a
DTITLE=John St. John - The Blue Planet
DYEAR=2000
DGENRE=New Age
TTITLE0=Lord of the Sea
TTITLE1=Magic Dolphin
TTITLE2=The Seagull
TTITLE3=Dance of the Dolphins
TTITLE4=Waltz of the Waves
TTITLE5=Rolling Surf
TTITLE6=Beachcomber
TTITLE7=08 The Open Sea
TTITLE8=Neptune' s Tears
TTITLE9=Gentle Giant
EXTD=YEAR: 2000
EXTT0=
EXTT1=
EXTT2=
EXTT3=
EXTT4=
EXTT5=
EXTT6=
EXTT7=
EXTT8=
EXTT9=
PLAYORDER=
